<mxfile host="65bd71144e">
    <diagram id="YiQNo4kWv_XJoo5Sce8O" name="Page-1">
        <mxGraphModel dx="1086" dy="692" grid="1" gridSize="10" guides="1" tooltips="1" connect="1" arrows="1" fold="1" page="1" pageScale="1" pageWidth="850" pageHeight="1100" math="0" shadow="0">
            <root>
                <mxCell id="0"/>
                <mxCell id="1" parent="0"/>
                <mxCell id="2" value="" style="shape=image;verticalLabelPosition=bottom;labelBackgroundColor=default;verticalAlign=top;aspect=fixed;imageAspect=0;image=data:image/png,iVBORw0KGgoAAAANSUhEUgAAAZIAAAB9CAMAAAC/ORUrAAAAkFBMVEX///8Ape3L6PoAqu7H6foAqO4ArO8Are/f8fwvtPBYxPOp4PlGv/JqxPOT1/ef2fcfsfB9yvTX7fvo9P3x+v6R0fYuuPFyyfRFufFWvvLQ7Pvy+f7B5vqIz/X4/f9jxPO44Pmr2/eC0fa15Pqd1faG1fZlyPQAn+y54Pk4vPLD5fl4yPSn2vfh9v2c2/h1zPVV9UH3AAAKIklEQVR4nO2da2OiSgyGwZgMeEWlAiqg1dM97ur2//+7M1wUMqKlZ3td83wpO1AXeZkkkwRqWYIgCIIgCIIgCIIgCIIgCIIgCIIgCIIgCIIgCEIT05+dzz4FgdND9dmncK+swmhdbs6iaHwe74H3KecjWJZLlBRbKYB/HhZJPo8Owi7fcAAeq2GR5BOJqJgcPah7D5HkE1kAZbNDT5JtbVQk+SBm/ckk3iZ8MCCaZZNlXh/MJVnEk7hvHC28JYuIEBHAc9hwouiXniTIFiI9cJMIbX20u/jQk7wrHBu9585CTwrDJu0AnRR6bKxHnodBp6OPhtkHnuSd8XzIf/QBNnyHp+YK+NTpEbn5SBeIiyW8A4pCPrACRQEf6p2n0lCmyfszAEMSBxSs+FAVcS0A+h9yWvfKrPMYuGrOB0MC5fKhSpIlQvwhp3aX+GMvi7nIkGSllyQABzZWSeIDiSTvxYEAMH1YGUsQy4PAejqnugpEko9gi+TmC/QeMEnGoP23vvCT+qAYro9gT24xEQZMkqSItgIeWFWSrMS9vxv2KdPbY4brGXKTlRALjStJUqLlx5zg/YH0nP/sqrp7dwAe8o0RYC110iNVrB31UvHXh53ivRGSp6+5H9ss4orAK8yZNmC1QLhHgGPfstaKlG8J78MCCNxQ2ekIq2vfRTx5ig1irdCLQWir0AVQjiW8F06ICGHXcqIqe/IrGp63h2l03n6MVtbGRdubiCN5V5bL1xmh5fI7V0uOf/oBktt7Y1Z22/XUdLdrsgV7FC/6Ismi02ldUfPstl6wj3bThFjbQcPoHeMQjfnIMVWg8coegaFSz9XO0KMRO3qLT23/qz5go41ypSzBcBC4JGMiHZkjEKa5hxuS8s6ubgoKuCRzbB0qXpPkgM9Nw3eLA3yWjFBBrK1WNwA7z1prSeDnae8jKT5LpmgUhW5wTZIE8VWn/LdjSLJAdWrjWBcmfkh7Sk+7Se35LJmgUc2+wTVJrBS3jeN3iiGJq8hw7EP4R9nldhf3MZcEsX0MfFWSNaaN43cKl2RxWbUZwkOK62I7hfGASdIFMA7vPkZRFDeGtbkkiyAMn6Z8xww8iYMruCQpXdzIQ4hXpcPwPfQ9JskGWfknGWflVNTxWlMM3QdwIttGJPuR7UjcWoyw/YEVdvf/fKdvDpckpIvnXYYwscoizwojvVmXJC3z26cPszEaz/yRjgga8hF9UJ4dTJdbl5BHeWGt/r21qQLvXhJfwcWyLZNkWOiQuWFkEVdkOOZdMTu2Fz1sGZkkheeZEzBL9cSVvYXf/Ta0/UomXJKGanMmyaqotKG+97kk11YlSNHlYGa4iq2O0RZywNZF7u4P+5tgetnWMEmaGgAySSzAaeY4AotLop1Lcww1aJbkfLRHg/qef7F1q6ff+Ta0/Uom7SSJs9s4yiz7y5J0Nz3XUw0ryJokLm+YXsP88vC7xfAl/O7NyCVx0M1C1eRFSaZDwLyH7bYkc1OS/Xl7MfxVMbzHwh6PuCK6yG3kkminMd1iFroySXT0yiUJdPw7H21nF823GTckqRkuCYK5JDGBeREKScaoF4zZLcvde8jd+0i79Xxgb7aoZ1w3XHX37k/r3OMSkkui/2VarkISH8s2DjMIZs1n7kmJF2bJjIAlf3vtg+A7wMhxRQS/T9vF1S4k0TFUkcTnkvAFRXLeeW2WlFXFDfA1YChthTUcvkSYgSpX1klg54FsKckWi9Udl4QnDBMojrV+Q+HeHa9ejOmfEmgz4O3SFy7pvnFAuVFBmK3EF7YC9/Hnz8Cjol5YSuJPiuf2uSQLnnaMQOnbfRrZpSQDUrXCul6925GeHX390SzxOEP3O/eDvDWOTVBi5yZrOkfSQ3SaPUNkbZg2suS8qvduWo7KCpI2jPp2Pg2eUdVMUt8OD5BnJY0CwBiHlnDGjx9OxOWFWmXF9/lDaUs28bp+fBwzLxDzBKKvo2A1mVlOnM+pZBzVJFnEB+v4TKDM3H2ExsNpwh/g4O1191OL/hX//6eDhAZCvNVe5JN7Y2/JQ/uk43sw+9PQwv9iKYaF3ZBgPOF7LQoeife5j3FEP9r2rI1+Nd07jt3itvtQ9vbVbzTFU4X4FqPW7ZJX8bebTZ/f7MnlUDMdvHFPcQbQePED+4t1c0y98dV9v6ZXd1U8/emL+1ZRVloGHFT/2yzNh+y0EMUrMmYqPVwG27ctL+OKJEf8atPkswmQgFzX03H7rhzqU/ZEST6UX29X5Q2cOrj31sZvT1+IT+pckcRKJWJkDIC8zVEbr5V7MkF9VDhyMnvmYV64dsl1ptPVxNWLVaMCHWD7XM41SVbtbd89MAY6L/0fi40ZnNsDk6KVwD0lcA6g+B2dKGyfOLgmifWaD/nr8esdyyUBmIbkLIm1RcXKAq+6wa9K8pqp9tezA/O1NJaPFwWGSpLsKff6LwRmZduJ59oSThrrNJkk/oMHKjXClgNcFGPvF5cuJsnhUqWaJFNgb3uKeLzVCe2iN7Cx/XJA4YpsG4GMxwdeymHcEz5dtsI8E5l9yjVJLKiXchIAdsNv7CxUSEbUVILLEtt2li7fuoovgZcAX2wF/3ksGnr43MskTl2SOdUqAQkak6z8tJia2s8HVFbsfOTtHskrnrL52+kArM0x77YkT3WjdG2VN21s16zc+4PRO522X2/+7Zwl2bqhxs2cyAuSBFB76cPqSgx1pNuSaMlYzmIoIdeJsyS/M7dMeYfyC5LsqTZLtpeSJIvR0EXjYbOCSpIZEGvgGOLvy8PvEwfKVpfEXy4dL38t9oAuwqWr7v1CkiTO8mGgXi2JzJITqnaxZyqXZEcXT7fUJDkC1R5B7hq+ZEqAbtxxjq+W5Islgz+RlKoo9lhIskD+GjqLSfLAloq+IYlX7j3SbUkc4PsjbJPzvg+6WD3bWkqSPW9pWK5KEodUvaqcoKoHuyssXdNLkoyJhVi+J0FwRVStpP1Skm3NXfTzJd1ZEsdTLJRKPHZ7rwEKhc6SsLfbVJIYIcQSPWlEO3NEBZPiuh2o/KsXWqZ5ftcmE8xv30KSZBHrOcJX+9wJaElyCWdu6Utiu27m9Oq9CKwejRh4JUWsOp2s5Wy+2wUe0Ml8hHpMDz0RwVMml6tyshqW8Tj3mHepgXI3SycG5eXuewb18CHvFIxWy4WWnAu7+9yGji/HcZ/3AgLg/GyE4iw1mA0V5scrmwcxMrszHP4HZFbZQbYd+ns7j6hcULUXvOzt8UO2/gGzFdCVsqLB9GEQhlHMHO4hDcPBuHTz/65zmq7b3OiFfQ7DVH/QYp0PJ2u3Fiqs1k5+wJMRZB/lDwO9JWM0I2ZG0vQ4mclI7Nabcvs9pyP7ev/NGXl71dsywhsXfdembW4r73h7WxLCq82W8Y8WZivxZJK8MeP06sp7dri2p4YfiCcRBEEQBEEQBEEQBEEQBEEQBEEQBEEQBEEQBEH4hvwHRGaRvJBWk+0AAAAASUVORK5CYII=;" vertex="1" parent="1">
                    <mxGeometry x="520" y="230" width="402" height="125" as="geometry"/>
                </mxCell>
                <mxCell id="3" value="Enter two positive integers:" style="text;html=1;align=center;verticalAlign=middle;resizable=0;points=[];autosize=1;strokeColor=none;fillColor=none;" vertex="1" parent="1">
                    <mxGeometry x="70" y="230" width="170" height="30" as="geometry"/>
                </mxCell>
                <mxCell id="4" value="" style="whiteSpace=wrap;html=1;" vertex="1" parent="1">
                    <mxGeometry x="90" y="280" width="180" height="20" as="geometry"/>
                </mxCell>
                <mxCell id="5" value="" style="whiteSpace=wrap;html=1;" vertex="1" parent="1">
                    <mxGeometry x="90" y="320" width="180" height="20" as="geometry"/>
                </mxCell>
                <mxCell id="7" value="&lt;div&gt;&lt;span style=&quot;background-color: transparent;&quot;&gt;Calculate LCM&lt;/span&gt;&lt;/div&gt;" style="whiteSpace=wrap;html=1;" vertex="1" parent="1">
                    <mxGeometry x="110" y="360" width="110" height="40" as="geometry"/>
                </mxCell>
            </root>
        </mxGraphModel>
    </diagram>
</mxfile>